<svg id="Capa_1" enable-background="new 0 0 512 512" height="512" viewBox="0 0 512 512" width="512" xmlns="http://www.w3.org/2000/svg"><g><path d="m500.268 179.619c42.184 134.906-32.982 278.465-167.888 320.649s-278.464-32.982-320.648-167.887 32.982-278.465 167.887-320.649 278.465 32.982 320.649 167.887z" fill="#40c1fa"/><path d="m511.988 253.619c-7.479 5.284-15.898 9.508-25.108 12.388-47.451 14.838-97.946-11.601-112.784-59.052-6.12-19.572-5.217-39.662 1.285-57.554-9.139 12.46-22.195 22.216-38.074 27.181-34.489 10.784-70.906-4.594-87.862-34.934-2.225.988-4.529 1.86-6.908 2.604-33.489 10.472-69.127-8.187-79.599-41.677-3.819-12.213-3.763-24.711-.527-36.171-15.146-5.368-28.109-16.404-35.612-31.394 16.34-9.533 33.999-17.392 52.82-23.278 3.662-1.145 7.331-2.204 11.003-3.177 77.052-20.42 147.974 5.398 208.378 49.445 33.975 24.775 70.069 49.381 88.73 89.291 4.836 10.342 9.036 21.129 12.538 32.328 7.693 24.601 11.483 49.49 11.72 74z" fill="#3d7a51"/><path d="m487.73 147.29c-4.967 13.279-17.771 22.733-32.783 22.733-17.758 0-32.425-13.228-34.687-30.369-2.4.249-4.836.377-7.301.377-38.069 0-69.038-30.397-69.96-68.244-9.834 5.271-21.074 8.26-33.013 8.26-27.229 0-50.825-15.551-62.393-38.255-6.095 5.155-13.976 8.263-22.584 8.263-19.325 0-34.991-15.666-34.991-34.991 0-2.225.208-4.4.605-6.509 44.343-11.752 89.295-11.065 130.981.03.978.26 1.171 3.018 2.146 3.29 2.745.766 5.476 1.577 8.19 2.432 1.357.428 3.492-1.625 4.84-1.175 8.127 2.711 16.105 5.824 23.905 9.323 1.516.68-.303 4.199 1.199 4.908 6.974 3.293 13.798 6.898 20.448 10.803 1.137.668 5.598-1.479 6.726-.794 41.997 25.537 76.822 63.19 98.672 109.918z" fill="#489160"/><path d="m336.781 13.132c-33.189 47.584-80.899 82.661-137.174 100.258-25.938 8.111-52.509 12.133-78.931 12.133-26.194 0-52.25-3.951-77.435-11.786 2.931-4.39 6-8.692 9.201-12.9 46.336 13.399 95.596 12.965 142.689-1.76 51.458-16.09 95.323-47.68 126.474-90.491 5.11 1.36 10.171 2.876 15.176 4.546z" fill="#9bcf1b"/><path d="m168.297 105.885c8.999-1.763 17.955-4.031 26.834-6.808 31.424-9.826 60.016-25.432 84.61-45.844 4.87-4.042 12.25-.526 12.25 5.802 0 2.218-.971 4.336-2.678 5.752-26.076 21.639-56.39 38.184-89.706 48.602-9.389 2.936-18.86 5.336-28.378 7.203-4.651.913-8.987-2.618-8.987-7.357 0-3.584 2.537-6.661 6.055-7.35z" fill="#b9e746"/><path d="m120.311 288.933c14.565 63.141 9.374 118.248-11.594 123.085s-49.773-42.428-64.338-105.57c-14.565-63.142-9.374-118.248 11.594-123.085 20.969-4.837 49.774 42.428 64.338 105.57zm116.007 8.073c-1.481-84.396-20.124-152.507-41.639-152.129s-37.756 69.1-36.275 153.497c1.481 84.396 20.124 152.507 41.639 152.129 21.516-.378 37.757-69.1 36.275-153.497z" fill="#b9801b"/><path d="m389.059 37.373c-.746 1.119-1.655 2.156-2.726 3.074l-87.831 75.29c-48.127 41.256-102.803 72.967-162.512 94.252l-64.26 22.908c-14.739 5.254-30.058 8.136-45.422 8.658-8.624.293-13.17-30.094-8.633-29.96l-3.293-3.61c-5.582-6.118-5.146-15.604.973-21.185 6.119-5.58 15.604-5.146 21.185.973l17.589 19.281c2.528-.719 5.039-1.521 7.53-2.409l64.26-22.908c3.471-1.237 6.924-2.512 10.359-3.824-14.427-3.029-28.702-6.815-42.693-11.329l-13.142-4.241c-7.882-2.543-12.203-10.99-9.667-18.877 2.543-7.881 10.995-12.209 18.877-9.666l13.142 4.241c22.602 7.293 46.002 12.539 69.553 15.595l14.044 1.823c33.07-17.129 64.053-38.028 92.59-62.491l82.067-70.349c9.629 4.338 18.985 9.266 28.01 14.754z" fill="#edd578"/><path d="m389.059 37.373c-.746 1.119-1.655 2.156-2.726 3.074l-87.831 75.29c-11.508 9.865-23.391 19.184-35.628 27.946-4.375 3.133-10.103 3.643-14.964 1.335-.137-.065-.275-.131-.415-.197-10.187-4.837-11.435-18.833-2.262-25.394 11.593-8.292 22.85-17.116 33.749-26.46l82.067-70.349c9.629 4.339 18.985 9.267 28.01 14.755z" fill="#f1de96"/><path d="m276.635 490.114c-32.471 9.851-65.358 12.964-97.161 10.133-77.247-24.278-141.745-84.728-167.742-167.867-12.668-40.511-14.753-81.803-7.816-120.895.914-.644 1.889-1.133 2.927-1.457 12.65-3.956 31.572 17.326 50.127 53.082 24.895 47.972 77.564 75.285 130.998 67.168 1.001-.152 2.002-.31 3.003-.474 17.248-2.83 27.958-20.208 22.733-36.887-.032-.102-.064-.204-.096-.307-25.191-80.562-28.963-151.077-8.425-157.499s57.609 53.681 82.8 134.243c2.061 6.592 3.979 13.116 5.752 19.544 18.746-12.729 35.495-27.769 49.972-44.593 36.94-42.929 117.857 9.888 109.807 50.47-17.779 89.625-83.1 166.888-176.879 195.339z" fill="#df9d28"/><path d="m342.934 459.197c-19.989 13.107-42.173 23.619-66.23 30.917-32.471 9.851-65.358 12.964-97.161 10.133-77.248-24.278-141.746-84.728-167.743-167.867-12.668-40.511-14.753-81.803-7.816-120.895.914-.644 1.889-1.133 2.927-1.457 4.118-1.288 8.901.099 14.12 3.79 1.746 21.453 5.879 43.048 12.572 64.453 18.305 58.541 53.151 107.335 97.787 142.848 58.164 46.275 135.61 60.836 206.818 39.534.375-.112.75-.225 1.124-.339 1.205-.366 2.405-.738 3.602-1.117z" fill="#c88a1d"/><path d="m404.659 402.109c-11.138 14.379-23.845 27.626-37.968 39.448-27.498-3.639-52.408-8.994-74.868-15.458-1.092-.314-1.906-1.22-2.114-2.337l-2.549-13.686c-.303-1.628-1.869-2.703-3.498-2.399l-29.152 5.429c-.553.103-1.129.048-1.653-.156-8.934-3.488-17.371-7.131-25.324-10.868-1.729-.812-13.374 4.464-20.321 7.761-2.219 1.053-4.687-.856-4.23-3.27.58-3.058 1.439-7.069 2.621-11.385.514-1.875-.871-3.737-2.815-3.787l-38.492-.988c-2.708-.069-3.944-3.41-1.932-5.225l10.972-9.902c1.424-1.285 1.292-3.565-.275-4.671-31.283-22.07-47.64-41.99-51.65-48.455 20.615 8.52 43.548 11.622 66.623 8.117 1.001-.152 2.002-.31 3.003-.474 3.766-.618 7.219-1.93 10.264-3.776l.078.054c4.925 3.456 8.335 8.67 9.437 14.585l1.815 9.746c.303 1.628 1.869 2.703 3.498 2.399l20.325-3.785c.687-.128 1.398-.009 2.007.333 9.052 5.068 18.054 9.694 26.92 13.909.866.412 1.479 1.208 1.654 2.151l2.889 15.515c.303 1.628 1.869 2.703 3.498 2.399l26.212-4.882c.672-.125 1.374-.036 1.968.302 5.121 2.92 11.948 13.396 14.429 17.393.596.96 1.67 1.499 2.796 1.401 6.228-.542 26.735-2.23 38.23-2.023 2.67.048 3.94 3.307 2.016 5.16l-4.913 4.732c-2.143 2.064-.296 5.653 2.63 5.109l44.635-8.313c1.244.007 2.324-.029 3.234-.103z" fill="#e4ab45"/><path d="m499.585 310.438c-30.733 58.697-109.179 78.253-175.214 43.678s-94.652-110.187-63.919-168.884 109.179-78.253 175.214-43.678 94.652 110.186 63.919 168.884z" fill="#df9d28"/><path d="m499.585 310.438c-30.733 58.698-109.179 78.253-175.214 43.678-1.347-.705-2.678-1.428-3.994-2.167-31.97-45.383-40.436-105.066-17.104-154.664 18.152-38.585 51.775-63.043 90.166-70.406 14.252 2.645 28.507 7.491 42.227 14.675 66.035 34.574 94.652 110.186 63.919 168.884z" fill="#e4ab45"/><path d="m481.871 301.163c-20.489 39.132-82.699 46.978-138.951 17.525s-85.243-85.051-64.754-124.183 82.699-46.978 138.951-17.525 85.243 85.052 64.754 124.183z" fill="#edd578"/><path d="m374.048 313.402c-8.31 2.042-17.021 1.29-24.782-2.774s-13.342-10.794-16.398-18.787c-.915-2.393 2.259-6.109 3.822-4.481 4.937 5.143 10.92 9.686 17.801 13.289s14.024 5.932 21.063 7.059c2.228.357.982 5.083-1.506 5.694z" fill="#e4ab45"/><path d="m481.871 301.163c-1.245 2.378-2.644 4.639-4.186 6.785-9.605.072-19.596-.901-29.247-2.998-37.769-8.203-56.038-30.493-51.35-52.075s30.558-34.284 68.326-26.08c3.134.681 6.252 1.484 9.332 2.398 14.74 24.27 18.325 50.58 7.125 71.97zm-133.208-135.498c-2.345-2.188-4.782-4.293-7.287-6.304-28.345 1.712-52.01 13.754-63.21 35.144-1.245 2.378-2.306 4.816-3.191 7.306 5.412 7.935 11.904 15.592 19.125 22.329 28.259 26.368 56.985 28.685 72.052 12.537 15.068-16.147 10.77-44.645-17.489-71.012z" fill="#b9801b"/><path d="m356.762 218.73c-6.403 12.228-21.506 16.951-33.735 10.549-12.229-6.403-16.951-21.506-10.549-33.735s21.506-16.952 33.735-10.549 16.952 21.507 10.549 33.735zm94.16 21.09c-12.229-6.403-27.332-1.68-33.735 10.549s-1.68 27.332 10.549 33.735 27.332 1.68 33.735-10.549 1.68-27.333-10.549-33.735z" fill="#f9f1d2"/><path d="m347.905 214.093c-3.842 7.337-12.904 10.171-20.241 6.329s-10.171-12.904-6.329-20.241 12.904-10.171 20.241-6.329 10.171 12.904 6.329 20.241zm98.38 34.583c-7.337-3.842-16.399-1.008-20.241 6.329s-1.008 16.399 6.329 20.241 16.399 1.008 20.241-6.329 1.008-16.399-6.329-20.241z" fill="#0a4499"/><path d="m352.376 205.958c0 5.215-4.228 9.443-9.443 9.443s-9.443-4.228-9.443-9.443 4.228-9.443 9.443-9.443 9.443 4.228 9.443 9.443zm104.515 56.003c0 5.215-4.228 9.443-9.443 9.443s-9.443-4.228-9.443-9.443 4.228-9.443 9.443-9.443 9.443 4.228 9.443 9.443z" fill="#5596fb"/><path d="m388.347 266.594c3.37 3.687 5.011 8.696 4.367 13.65-.013.098-.026.195-.039.293-.536 3.915-2.436 7.543-5.348 10.213-.073.067-.145.133-.218.199-3.704 3.352-8.756 4.857-13.706 4.187-5.143-.696-10.431-2.347-15.525-5.014s-9.464-6.072-12.965-9.903c-3.37-3.687-5.011-8.696-4.367-13.65.013-.098.026-.195.039-.293.536-3.915 2.436-7.543 5.348-10.213.073-.067.146-.133.218-.199 3.704-3.352 8.756-4.857 13.706-4.187 5.143.696 10.431 2.347 15.525 5.014 5.093 2.667 9.463 6.072 12.965 9.903z" fill="#ff5e93"/><path d="m362.838 271.847c-1.921 3.668-6.452 5.086-10.121 3.165s-5.085-6.452-3.165-10.121c1.921-3.669 6.452-5.086 10.121-3.165s5.086 6.452 3.165 10.121zm17.354.622c-3.669-1.921-8.2-.504-10.121 3.165s-.504 8.2 3.165 10.121 8.2.504 10.121-3.165c1.92-3.669.503-8.2-3.165-10.121z" fill="#c50048"/></g></svg>